<?xml version="1.0" encoding="UTF-8" standalone="no"?>
<svg
   xmlns:dc="http://purl.org/dc/elements/1.1/"
   xmlns:cc="http://creativecommons.org/ns#"
   xmlns:rdf="http://www.w3.org/1999/02/22-rdf-syntax-ns#"
   xmlns:svg="http://www.w3.org/2000/svg"
   xmlns="http://www.w3.org/2000/svg"
   viewBox="0 0 1806.2667 323.95999"
   height="323.95999"
   width="1806.2667"
   xml:space="preserve"
   id="svg2"
   version="1.1"><metadata
     id="metadata8"><rdf:RDF><cc:Work
         rdf:about=""><dc:format>image/svg+xml</dc:format><dc:type
           rdf:resource="http://purl.org/dc/dcmitype/StillImage" /></cc:Work></rdf:RDF></metadata><defs
     id="defs6" /><g
     transform="matrix(1.3333333,0,0,-1.3333333,0,323.96)"
     id="g10"><g
       transform="scale(0.1)"
       id="g12"><path
         id="path14"
         style="fill:#ffffff;fill-opacity:1;fill-rule:nonzero;stroke:none"
         d="m 946.871,1173.77 v 73.48 H 681.188 c -169.59,0 -254.383,-52.8 -254.383,-158.28 0,-54.67 20.261,-96.591 60.789,-125.798 40.519,-29.211 98.457,-43.793 173.82,-43.793 75.352,0 141.758,23.051 199.277,69.25 57.461,46.151 86.18,107.841 86.18,185.141 z M 1373.75,594.309 H 975.184 V 778.051 C 865.836,640.449 730.66,571.691 569.539,571.691 408.426,571.691 273.191,618.32 163.961,711.641 54.6172,804.898 -0.00390625,929.25 -0.00390625,1084.74 c 0,155.43 56.55470625,271.8 169.58990625,349.09 113.098,77.23 267.559,115.88 463.574,115.88 h 316.555 v 8.47 c 0,162.02 -85.754,243.06 -257.219,243.06 -73.484,0 -151.199,-14.57 -233.152,-43.78 -82.012,-29.27 -151.262,-65.5 -207.805,-108.8 L 62.1758,1922.81 c 199.7072,145.09 427.7732,217.67 684.0232,217.67 184.649,0 335.431,-46.21 452.271,-138.5 116.79,-92.35 175.28,-238.41 175.28,-438.18 V 594.309" /><path
         id="path16"
         style="fill:#ffffff;fill-opacity:1;fill-rule:nonzero;stroke:none"
         d="m 2289.54,1203.52 c -210.67,0 -210.67,-83.22 -210.67,-114.56 0,-40.65 13.56,-69.35 42.64,-90.3 32.7,-23.601 82.58,-35.558 148.25,-35.558 65.73,0 121.95,19.5 171.89,59.608 47,37.76 69.84,87.17 69.84,151.06 v 29.75 z m -19.78,-327.879 c -84.42,0 -151.51,17.507 -199.41,52.07 -51.63,37.238 -78.93,92.979 -78.93,161.249 0,92.15 51.71,202.02 298.12,202.02 h 309.41 v -117.21 c 0,-90.81 -34.5,-164.58 -102.53,-219.239 -65.16,-52.32 -141.42,-78.89 -226.66,-78.89 z m -28.25,630.339 c -186.06,0 -333.75,-36.42 -438.91,-108.24 -101.29,-69.27 -150.53,-171.64 -150.53,-313 0,-143.388 48.61,-254.541 148.62,-339.83 100.57,-85.949 227.47,-129.5 377.21,-129.5 148.39,0 269.86,62.09 371.38,189.86 l 77.97,98.101 V 638.039 h 311.11 V 1563.8 c 0,184.76 -53.38,320.64 -158.66,403.89 -108.44,85.63 -251.5,129.05 -425.15,129.05 -230.82,0 -440.28,-62.15 -623.32,-184.85 l 139.48,-201.96 c 52.32,34.36 113.44,64.14 182.28,88.71 86.22,30.74 169.6,46.34 247.85,46.34 196.89,0 300.95,-99.18 300.95,-286.79 v -52.21 z M 2177.9,527.949 c -171.14,0 -317.17,50.621 -434.01,150.43 -118.95,101.461 -179.27,238.203 -179.27,406.361 0,170 63.46,299.59 188.63,385.19 120,81.97 284.27,123.5 488.26,123.5 h 271.23 c -10.87,113.14 -77.49,164.1 -211.9,164.1 -68.2,0 -141.69,-13.89 -218.46,-41.28 -77.42,-27.62 -143.33,-62.04 -195.91,-102.32 l -36.47,-27.9 -239.72,347.07 34.53,25.11 c 206.45,149.94 445.23,225.98 709.74,225.98 193.81,0 355.09,-49.76 479.37,-147.89 127.34,-100.67 191.9,-259.64 191.9,-472.5 V 550.578 H 2539.79 V 667.391 C 2436.96,574.781 2315.65,527.949 2177.9,527.949" /><path
         id="path18"
         style="fill:#ffffff;fill-opacity:1;fill-rule:nonzero;stroke:none"
         d="m 4361.11,1346.31 c 0,117.57 -32.81,210.04 -98.44,277.48 -65.56,67.38 -146.7,101.13 -243.26,101.13 -96.63,0 -180.04,-33.75 -250.17,-101.13 -70.13,-67.44 -105.23,-159.5 -105.23,-276.08 0,-116.63 34.16,-210.98 102.54,-282.93 68.31,-72.061 151.67,-107.971 250.11,-107.971 98.38,0 180.45,35.5 246.01,106.571 65.63,71.07 98.44,165.42 98.44,282.93 z m 57.38,-518.009 c -129.38,-144 -290.23,-215.949 -482.5,-215.949 -192.25,0 -354.45,65.097 -486.59,195.418 -132.13,130.32 -198.16,304.34 -198.16,522.16 0,217.77 67.85,396.4 203.66,535.78 135.7,139.45 291.11,209.17 466.06,209.17 174.96,0 319.84,-72.06 434.65,-216.01 V 2053 H 4765.7 V 770.93 c 0,-131.258 -22.81,-247.84 -68.38,-349.961 C 4651.76,318.949 4590.75,238.77 4514.19,180.449 4362.87,60.1406 4184.29,0 3978.41,0 3869.02,0 3757.36,17.7813 3643.54,53.2891 3529.6,88.8594 3429.81,139.449 3344.18,205.02 l 158.57,308.89 c 134.83,-102.012 277.42,-153.07 427.8,-153.07 150.34,0 269.24,37.371 356.75,112.07 87.44,74.75 131.19,193.129 131.19,355.391" /><path
         id="path20"
         style="fill:#ffffff;fill-opacity:1;fill-rule:nonzero;stroke:none"
         d="m 5970.97,1664.79 c -56.5,47.38 -125.28,71.07 -206.35,71.07 -81.13,0 -155.41,-24.57 -222.8,-73.81 -67.44,-49.2 -106.63,-115.76 -117.56,-199.52 h 645.16 c -9.19,87.44 -41.94,154.89 -98.45,202.26 z M 6364.63,792.738 C 6198.81,635.988 6004.2,557.66 5780.99,557.66 c -223.26,0 -407.8,68.789 -553.56,206.422 -145.82,137.566 -218.7,322.048 -218.7,553.568 0,231.39 74.23,415.52 222.8,552.16 148.51,136.69 323.93,205.07 526.24,205.07 202.27,0 374.06,-61.13 515.31,-183.2 141.2,-122.07 211.86,-289.77 211.86,-502.97 v -218.7 H 5413.32 c 12.75,-80.19 54.69,-145.82 125.76,-196.819 71.06,-51.062 151.26,-76.57 240.58,-76.57 143.94,0 262.39,48.32 355.33,144.879 l 229.64,-248.762" /><path
         id="path22"
         style="fill:#ffffff;fill-opacity:1;fill-rule:nonzero;stroke:none"
         d="M 7116.6,1399.65 V 579.539 H 6706.51 V 2050.25 h 410.09 v -164.01 c 123.89,125.76 263.33,188.64 418.21,188.64 154.88,0 284.74,-54.69 389.56,-164.07 104.76,-109.32 157.16,-255.14 157.16,-437.35 V 579.539 h -410.02 v 831.051 c 0,225.95 -82.94,338.96 -248.77,338.96 -82,0 -153.53,-29.66 -214.6,-88.85 -61.07,-59.25 -91.54,-146.23 -91.54,-261.05" /><path
         id="path24"
         style="fill:#ffffff;fill-opacity:1;fill-rule:nonzero;stroke:none"
         d="m 6229.63,2278.42 h -965.58 v 151.32 h 965.58 v -151.32" /><path
         id="path26"
         style="fill:#ffffff;fill-opacity:1;fill-rule:nonzero;stroke:none"
         d="m 12361,650.531 c 0,-23.711 -8,-44.101 -24.2,-61.172 -16.1,-17.089 -37.2,-25.629 -63.2,-25.629 -26.1,0 -47.3,8.918 -63.6,26.758 -16.3,17.821 -24.5,39.543 -24.5,65.153 0,25.621 8.9,47.3 26.6,65.007 l 26,-21.117 c -12.9,-14.75 -19.3,-29.59 -19.3,-44.519 0,-14.942 5,-27.922 14.9,-38.91 9.9,-10.993 22.7,-16.493 38.4,-16.493 15.7,0 29,5.442 39.9,16.332 10.9,10.879 16.4,24.278 16.4,40.188 0,15.91 -7.3,30.902 -21.8,44.992 l 23,21.141 c 21,-20.711 31.4,-44.633 31.4,-71.731" /><path
         id="path28"
         style="fill:#ffffff;fill-opacity:1;fill-rule:nonzero;stroke:none"
         d="m 12221.7,848.75 c 0,-17.73 5.8,-31.07 17.3,-40.039 11.5,-8.949 27,-13.441 46.4,-13.441 h 73.1 v -35.872 h -170.4 v 35.872 h 34.3 c -10.7,5.75 -19.5,13.609 -26.3,23.539 -6.8,9.929 -10.4,20.441 -10.6,31.55 l 36.2,0.301 c 0,-0.629 0,-1.262 0,-1.91" /><path
         id="path30"
         style="fill:#ffffff;fill-opacity:1;fill-rule:nonzero;stroke:none"
         d="m 12358.5,922.398 v -35.867 h -170.4 v 35.867 z m -204.4,-33.617 c -4.5,-4.48 -9.8,-6.73 -16,-6.73 -6.1,0 -11.5,2.25 -16,6.73 -4.5,4.481 -6.7,9.801 -6.7,16 0,6.207 2.2,11.528 6.7,16.008 4.5,4.492 9.9,6.742 16,6.742 6.2,0 11.5,-2.25 16,-6.742 4.5,-4.48 6.8,-9.801 6.8,-16.008 0,-6.199 -2.3,-11.519 -6.8,-16" /><path
         id="path32"
         style="fill:#ffffff;fill-opacity:1;fill-rule:nonzero;stroke:none"
         d="m 12295.1,1076.41 h -14.5 v -40.34 c 0,-25.83 8.1,-38.738 24.4,-38.738 8.3,0 14.6,3.208 19,9.598 4.4,6.41 6.6,15.32 6.6,26.74 0,11.42 -3.2,21.4 -9.6,29.94 -6.4,8.54 -15.1,12.8 -25.9,12.8 z m 63.4,35.87 v -32.66 h -22.8 c 16.9,-14.09 25.3,-32.98 25.3,-56.67 0,-17.73 -5,-32.411 -15,-44.04 -10.1,-11.64 -23.5,-17.461 -40.2,-17.461 -16.8,0 -29.3,6.192 -37.6,18.59 -8.4,12.371 -12.5,29.141 -12.5,50.261 v 46.44 h -6.5 c -22.6,0 -33.9,-12.6 -33.9,-37.79 0,-15.81 5.8,-32.24 17.3,-49.309 l -22.4,-16.012 c -16.5,20.699 -24.7,44.191 -24.7,70.441 0,20.07 5.1,36.47 15.2,49.17 10.2,12.71 26.1,19.04 47.9,19.04 h 109.9" /><path
         id="path34"
         style="fill:#ffffff;fill-opacity:1;fill-rule:nonzero;stroke:none"
         d="m 12216.9,1204.52 h 86.5 c 8.1,0 14.6,2.14 19.3,6.41 4.9,4.26 7.2,10.26 7.2,17.92 0,7.69 -3.7,15.07 -11.2,22.11 l 25.3,14.72 c 11.4,-12.58 17,-26.53 17,-41.78 0,-15.28 -5.3,-28.29 -15.8,-39.08 -10.6,-10.77 -24.9,-16.17 -42.8,-16.17 h -85.5 v -21.45 h -28.8 v 21.45 h -53.5 v 35.87 h 53.5 v 44.85 h 28.8 v -44.85" /><path
         id="path36"
         style="fill:#ffffff;fill-opacity:1;fill-rule:nonzero;stroke:none"
         d="m 12358.5,1330.06 v -35.87 h -170.4 v 35.87 z m -204.4,-33.63 c -4.5,-4.48 -9.8,-6.72 -16,-6.72 -6.1,0 -11.5,2.24 -16,6.72 -4.5,4.49 -6.7,9.81 -6.7,16.02 0,6.19 2.2,11.51 6.7,16 4.5,4.49 9.9,6.73 16,6.73 6.2,0 11.5,-2.24 16,-6.73 4.5,-4.49 6.8,-9.81 6.8,-16 0,-6.21 -2.3,-11.53 -6.8,-16.02" /><path
         id="path38"
         style="fill:#ffffff;fill-opacity:1;fill-rule:nonzero;stroke:none"
         d="m 12358.5,1427.09 -170.4,-68.52 v 37.14 l 128.7,51.88 -128.7,51.87 v 37.17 l 170.4,-68.54 v -41" /><path
         id="path40"
         style="fill:#ffffff;fill-opacity:1;fill-rule:nonzero;stroke:none"
         d="m 12358.5,1600.98 v -35.86 h -170.4 v 35.86 z m -204.4,-33.62 c -4.5,-4.49 -9.8,-6.73 -16,-6.73 -6.1,0 -11.5,2.24 -16,6.73 -4.5,4.48 -6.7,9.81 -6.7,16.01 0,6.19 2.2,11.52 6.7,16.01 4.5,4.48 9.9,6.72 16,6.72 6.2,0 11.5,-2.24 16,-6.72 4.5,-4.49 6.8,-9.82 6.8,-16.01 0,-6.2 -2.3,-11.53 -6.8,-16.01" /><path
         id="path42"
         style="fill:#ffffff;fill-opacity:1;fill-rule:nonzero;stroke:none"
         d="m 12274.1,1677.82 c 16.3,0 29.6,5.23 39.8,15.69 10.3,10.46 15.4,22.74 15.4,36.83 0,14.09 -5.2,26.04 -15.5,35.87 -10.4,9.81 -23.7,14.73 -39.9,14.73 -16.2,0 -29.8,-4.92 -40.7,-14.73 -10.8,-9.83 -16.3,-21.88 -16.3,-36.2 0,-14.3 5.5,-26.57 16.3,-36.81 10.9,-10.26 24.5,-15.38 40.9,-15.38 z m 62.6,-11.84 c -16.2,-16.01 -37.6,-24.02 -64.1,-24.02 -26.4,0 -47.6,8.22 -63.4,24.65 -15.8,16.44 -23.7,36.03 -23.7,58.77 0,22.75 9.6,41.03 28.8,54.92 h -93.5 v 35.88 h 237.7 v -35.88 h -25.7 c 18.8,-13.23 28.2,-32.57 28.2,-57.96 0,-21.57 -8.1,-40.36 -24.3,-56.36" /><path
         id="path44"
         style="fill:#ffffff;fill-opacity:1;fill-rule:nonzero;stroke:none"
         d="m 12295.1,1970.2 h -14.5 v -40.33 c 0,-25.84 8.1,-38.75 24.4,-38.75 8.3,0 14.6,3.2 19,9.6 4.4,6.41 6.6,15.32 6.6,26.74 0,11.42 -3.2,21.39 -9.6,29.93 -6.4,8.55 -15.1,12.81 -25.9,12.81 z m 63.4,35.87 v -32.67 h -22.8 c 16.9,-14.09 25.3,-32.97 25.3,-56.67 0,-17.72 -5,-32.41 -15,-44.03 -10.1,-11.64 -23.5,-17.45 -40.2,-17.45 -16.8,0 -29.3,6.18 -37.6,18.58 -8.4,12.37 -12.5,29.14 -12.5,50.26 v 46.44 h -6.5 c -22.6,0 -33.9,-12.6 -33.9,-37.79 0,-15.8 5.8,-32.24 17.3,-49.31 l -22.4,-16.01 c -16.5,20.7 -24.7,44.19 -24.7,70.44 0,20.07 5.1,36.46 15.2,49.16 10.2,12.71 26.1,19.05 47.9,19.05 h 109.9" /><path
         id="path46"
         style="fill:#ffffff;fill-opacity:1;fill-rule:nonzero;stroke:none"
         d="m 12274.1,2081.02 c 16.3,0 29.6,5.22 39.8,15.68 10.3,10.46 15.4,22.74 15.4,36.83 0,14.09 -5.2,26.04 -15.5,35.87 -10.4,9.81 -23.7,14.73 -39.9,14.73 -16.2,0 -29.8,-4.92 -40.7,-14.73 -10.8,-9.83 -16.3,-21.88 -16.3,-36.2 0,-14.29 5.5,-26.57 16.3,-36.81 10.9,-10.25 24.5,-15.37 40.9,-15.37 z m 62.6,-11.85 c -16.2,-16.01 -37.6,-24.03 -64.1,-24.03 -26.4,0 -47.6,8.22 -63.4,24.66 -15.8,16.44 -23.7,36.04 -23.7,58.77 0,22.74 9.6,41.04 28.8,54.93 h -93.5 v 35.86 h 237.7 v -35.86 h -25.7 c 18.8,-13.24 28.2,-32.57 28.2,-57.96 0,-21.58 -8.1,-40.36 -24.3,-56.37" /><path
         id="path48"
         style="fill:#ffffff;fill-opacity:1;fill-rule:nonzero;stroke:none"
         d="m 12260.8,2296.21 v 97.66 c -14.3,0 -25.3,-4.47 -33,-13.44 -7.7,-8.97 -11.5,-20.03 -11.5,-33.14 0,-13.13 4,-24.94 12,-35.4 8,-10.46 18.8,-15.68 32.5,-15.68 z m 28.2,133.53 v -133.53 c 12.4,0.85 22.3,6.5 29.9,16.96 7.6,10.47 11.4,22.42 11.4,35.88 0,21.34 -6.8,37.56 -20.2,48.67 l 22.4,20.49 c 19,-18.37 28.5,-42.27 28.5,-71.74 0,-23.9 -7.9,-44.25 -23.8,-60.99 -15.9,-16.77 -37.3,-25.14 -64.1,-25.14 -26.8,0 -48.1,8.54 -63.9,25.61 -15.8,17.09 -23.7,37.19 -23.7,60.36 0,23.17 7,42.87 21,59.1 14,16.22 33.2,24.33 57.8,24.33 h 24.7" /><path
         id="path50"
         style="fill:#ffffff;fill-opacity:1;fill-rule:nonzero;stroke:none"
         d="m 12658.4,599.93 c 16.3,0 29.6,5.23 39.8,15.679 10.3,10.461 15.4,22.743 15.4,36.832 0,14.09 -5.2,26.047 -15.5,35.868 -10.4,9.812 -23.7,14.73 -39.9,14.73 -16.2,0 -29.8,-4.918 -40.7,-14.73 -10.9,-9.821 -16.3,-21.879 -16.3,-36.188 0,-14.301 5.4,-26.57 16.3,-36.82 10.9,-10.25 24.5,-15.371 40.9,-15.371 z m 62.6,-11.852 c -16.2,-16.008 -37.6,-24.019 -64.1,-24.019 -26.4,0 -47.6,8.211 -63.4,24.652 -15.8,16.449 -23.7,36.027 -23.7,58.777 0,22.731 9.6,41.024 28.8,54.91 h -93.5 v 35.883 h 237.6 v -35.883 h -25.6 c 18.8,-13.226 28.2,-32.566 28.2,-57.949 0,-21.578 -8.1,-40.359 -24.3,-56.371" /><path
         id="path52"
         style="fill:#ffffff;fill-opacity:1;fill-rule:nonzero;stroke:none"
         d="m 12742.7,826.02 v -35.86 h -170.3 v 35.86 z m -204.3,-33.622 c -4.5,-4.488 -9.8,-6.726 -16,-6.726 -6.2,0 -11.5,2.238 -16,6.726 -4.5,4.481 -6.7,9.813 -6.7,16.012 0,6.199 2.2,11.52 6.7,16 4.5,4.5 9.8,6.738 16,6.738 6.2,0 11.5,-2.238 16,-6.738 4.5,-4.48 6.8,-9.801 6.8,-16 0,-6.199 -2.3,-11.531 -6.8,-16.012" /><path
         id="path54"
         style="fill:#ffffff;fill-opacity:1;fill-rule:nonzero;stroke:none"
         d="m 12651,902.551 c 14,0 26,4.308 36.2,12.969 10.1,8.64 15.2,20.281 15.2,34.91 0,14.621 -4.9,26.461 -14.7,35.55 -9.9,9.071 -22.1,13.59 -36.7,13.59 -14.6,0 -27,-4.582 -37.2,-13.761 -10.1,-9.18 -15.2,-21.028 -15.2,-35.547 0,-14.524 5.3,-26.102 15.7,-34.742 10.5,-8.661 22.7,-12.969 36.7,-12.969 z m -78.6,132.899 h 148.6 c 30.1,0 52.6,-8.17 67.7,-24.49 15,-16.339 22.6,-37.331 22.6,-62.94 0,-25.622 -8,-48.782 -24,-69.5 l -27.3,16.992 c 12.6,16.636 18.9,33.457 18.9,50.429 0,16.969 -4.3,30.43 -13.1,40.36 -8.8,9.91 -22.7,14.879 -41.9,14.879 h -21.8 c 10,-5.34 18,-12.969 24,-22.899 6,-9.929 9,-21.082 9,-33.472 0,-22.629 -7.9,-41.207 -23.7,-55.707 -15.8,-14.512 -35.5,-21.782 -59,-21.782 -23.4,0 -43.1,7.27 -58.9,21.782 -15.8,14.5 -23.7,33.019 -23.7,55.558 0,22.531 9.3,40.82 27.9,54.91 h -25.3 v 35.88" /><path
         id="path56"
         style="fill:#ffffff;fill-opacity:1;fill-rule:nonzero;stroke:none"
         d="m 12742.7,1123.19 v -35.87 h -170.3 v 35.87 z m -204.3,-33.62 c -4.5,-4.49 -9.8,-6.73 -16,-6.73 -6.2,0 -11.5,2.24 -16,6.73 -4.5,4.48 -6.7,9.8 -6.7,16 0,6.21 2.2,11.53 6.7,16.01 4.5,4.49 9.8,6.74 16,6.74 6.2,0 11.5,-2.25 16,-6.74 4.5,-4.48 6.8,-9.8 6.8,-16.01 0,-6.2 -2.3,-11.52 -6.8,-16" /><path
         id="path58"
         style="fill:#ffffff;fill-opacity:1;fill-rule:nonzero;stroke:none"
         d="m 12601.2,1219.25 h 86.5 c 8.1,0 14.5,2.14 19.3,6.4 4.8,4.26 7.2,10.26 7.2,17.93 0,7.68 -3.7,15.07 -11.2,22.1 l 25.3,14.72 c 11.3,-12.57 17,-26.52 17,-41.78 0,-15.27 -5.3,-28.28 -15.9,-39.07 -10.5,-10.77 -24.8,-16.17 -42.7,-16.17 h -85.5 v -21.46 h -28.8 v 21.46 h -53.5 v 35.87 h 53.5 v 44.84 h 28.8 v -44.84" /><path
         id="path60"
         style="fill:#ffffff;fill-opacity:1;fill-rule:nonzero;stroke:none"
         d="m 12679.3,1411.06 h -14.4 v -40.33 c 0,-25.84 8.1,-38.75 24.4,-38.75 8.3,0 14.6,3.2 19,9.61 4.4,6.4 6.6,15.31 6.6,26.73 0,11.42 -3.2,21.4 -9.6,29.94 -6.4,8.54 -15.1,12.8 -26,12.8 z m 63.4,35.88 v -32.67 h -22.7 c 16.9,-14.1 25.3,-32.98 25.3,-56.67 0,-17.73 -5,-32.41 -15,-44.04 -10.1,-11.64 -23.5,-17.45 -40.2,-17.45 -16.8,0 -29.3,6.18 -37.7,18.58 -8.3,12.37 -12.5,29.14 -12.5,50.26 v 46.44 h -6.4 c -22.6,0 -33.9,-12.6 -33.9,-37.79 0,-15.8 5.7,-32.24 17.3,-49.31 l -22.4,-16.01 c -16.5,20.7 -24.7,44.19 -24.7,70.44 0,20.07 5.1,36.46 15.2,49.17 10.2,12.7 26.1,19.05 47.9,19.05 h 109.8" /><path
         id="path62"
         style="fill:#ffffff;fill-opacity:1;fill-rule:nonzero;stroke:none"
         d="m 12742.7,1532.77 v -35.87 h -237.6 v 35.87 h 237.6" /><path
         id="path64"
         style="fill:#ffffff;fill-opacity:1;fill-rule:nonzero;stroke:none"
         d="m 9091.76,911.789 c 136.68,0 259.69,68.32 369.08,205.011 L 9704.1,843.469 C 9514.53,646.641 9309.52,548.199 9089,548.199 c -220.52,0 -406.86,69.723 -559,209.102 -152.2,139.449 -228.29,321.649 -228.29,546.789 0,225.02 76.97,408.21 231.03,549.47 153.96,141.19 336.62,211.85 548.08,211.85 105.69,0 212.78,-21.87 321.23,-65.62 108.39,-43.75 203.67,-108.45 285.67,-194.08 l -213.26,-278.83 c -47.37,56.44 -105.22,100.2 -173.6,131.2 -68.32,30.94 -136.22,46.44 -203.61,46.44 -107.56,0 -200.05,-35.09 -277.49,-105.22 -77.5,-70.19 -116.16,-167.7 -116.16,-292.52 0,-124.83 38.66,-221.86 116.16,-291.12 77.44,-69.25 168.11,-103.871 272,-103.871" /><path
         id="path66"
         style="fill:#ffffff;fill-opacity:1;fill-rule:nonzero;stroke:none"
         d="M 10314.3,570.078 H 9904.22 V 2040.79 h 410.08 V 570.078" /><path
         id="path68"
         style="fill:#ffffff;fill-opacity:1;fill-rule:nonzero;stroke:none"
         d="m 11415.5,1130.49 v 71.06 h -256.9 c -164.1,0 -246.1,-51.06 -246.1,-153.07 0,-52.878 19.6,-93.41 58.8,-121.66 39.2,-28.261 95.3,-42.351 168.1,-42.351 72.9,0 137.1,22.293 192.8,66.972 55.5,44.629 83.3,104.289 83.3,179.049 z m 412.8,-560.412 h -385.4 V 747.77 c -105.8,-133.059 -236.5,-199.571 -392.3,-199.571 -155.8,0 -286.6,45.102 -392.3,135.352 -105.7,90.187 -158.5,210.449 -158.5,360.829 0,150.33 54.7,262.86 164,337.62 109.4,74.69 258.7,112.07 448.3,112.07 h 306.2 v 8.18 c 0,156.7 -83,235.08 -248.8,235.08 -71.1,0 -146.2,-14.1 -225.5,-42.35 -79.3,-28.3 -146.3,-63.34 -201,-105.22 l -183.1,265.14 c 193.1,140.32 413.7,210.51 661.5,210.51 178.6,0 324.4,-44.68 437.4,-133.94 113,-89.32 169.5,-230.58 169.5,-423.77 V 570.078" /><path
         id="path70"
         style="fill:#ffffff;fill-opacity:1;fill-rule:nonzero;stroke:none"
         d="m 10307.5,2268.95 h -396.52 v 151.33 h 396.52 v -151.33" /><path
         id="path72"
         style="fill:#ffffff;fill-opacity:1;fill-rule:nonzero;stroke:none"
         d="m 13156.8,2112.32 h 36.4 c 42.5,0 76.9,14.17 76.9,48.53 0,30.33 -22.3,50.54 -70.8,50.54 -20.2,0 -34.4,-2.01 -42.5,-4.04 z m -2,-188 h -76.8 v 331.56 c 30.3,6.06 72.8,10.1 127.4,10.1 62.6,0 90.9,-10.1 115.2,-24.26 18.2,-14.15 32.4,-40.43 32.4,-72.79 0,-36.38 -28.4,-64.69 -68.8,-76.82 v -4.04 c 32.4,-12.13 50.6,-36.39 60.7,-80.87 10.1,-50.55 16.2,-70.75 24.2,-82.88 h -82.9 c -10.1,12.13 -16.1,42.44 -26.2,80.86 -6.1,36.39 -26.3,52.57 -68.8,52.57 h -36.4 z m -204.2,173.86 c 0,-147.59 109.2,-264.85 258.8,-264.85 145.6,0 252.7,117.26 252.7,262.83 0,147.59 -107.1,266.86 -254.7,266.86 -147.6,0 -256.8,-119.27 -256.8,-264.84 z m 596.4,0 c 0,-188.03 -147.5,-335.61 -339.6,-335.61 -190,0 -341.7,147.58 -341.7,335.61 0,183.98 151.7,331.56 341.7,331.56 192.1,0 339.6,-147.58 339.6,-331.56" /></g></g></svg>